<svg width="103" height="105" viewBox="0 0 103 105" fill="none" xmlns="http://www.w3.org/2000/svg">
<path d="M36.4387 33.9494C35.9253 33.9333 35.1349 33.7941 33.8896 33.2728C33.8896 33.2728 37.0912 34.8987 37.9797 37.765C37.9797 37.765 38.2646 36.424 37.5103 34.2615C37.5064 34.2414 37.5023 34.2237 37.4982 34.2055C37.663 35.3142 37.527 35.9546 37.527 35.9546C37.2921 35.1968 36.895 34.5268 36.4387 33.9494Z" fill="white"/>
<path d="M50.1022 31.1459C50.5071 31.0193 50.929 31.2349 51.3352 31.6313C50.7567 30.6557 50.0381 29.7988 49.3724 30.0067C48.3226 30.3349 48.4767 34.3345 49.9582 37.765C49.0522 34.5144 49.1249 31.4514 50.1022 31.1459Z" fill="white"/>
<path d="M62.4983 43.46C62.7016 42.0043 63.0374 40.088 63.4977 39.0783L62.8824 40.0765C62.6094 40.5195 61.9755 40.5474 61.6648 40.1302L59.0499 36.6199C59.0499 36.6199 61.2357 40.2526 62.0049 43.4814C62.0694 43.7523 62.4598 43.736 62.4983 43.46Z" fill="white"/>
<path d="M79.4778 38.3183C76.8404 31.8816 70.8059 36.262 67.0065 33.6248C63.207 30.9876 61.5083 29.8255 57.5301 30.4512C53.5519 31.0771 54.4907 31.2557 49.3055 26.6516C47.0257 24.5061 41.3937 28.0372 41.3937 28.0372C41.3937 28.0372 47.4728 25.3095 49.842 27.8579C52.2109 30.4063 53.4179 32.9541 57.3963 32.0602C61.3745 31.1663 65.5317 34.6976 65.5317 34.6976C65.5317 34.6976 67.5948 36.5571 71.5164 36.2094C70.3636 37.5989 70.2475 39.6258 70.2475 39.6258C70.5114 38.6894 70.9169 37.9895 71.3755 37.4666C72.8193 35.8195 75.3898 35.9182 76.7925 37.6006C78.581 39.7459 80.0496 43.712 79.5226 48.8346C79.2412 51.5722 78.8218 54.4238 78.3141 57.0066C78.3708 55.4571 78.3654 53.6626 78.2728 51.5818C78.2728 51.5818 77.8402 64.3585 74.9194 66.144C74.7999 66.1979 74.6801 66.2215 74.5611 66.2111C73.4504 66.1122 72.272 66.2037 71.3863 65.9974H74.9651C74.9651 65.9974 71.6591 65.7391 70.8303 65.1929C70.8303 65.1929 71.702 65.4386 73.7358 64.9695C73.7358 64.9695 71.6795 65.1483 70.7409 63.2037C69.8024 61.2593 71.6349 56.5881 71.1209 54.1744C71.1209 54.1744 70.9884 56.7198 70.0648 58.6434C70.0927 56.8622 70.0423 54.9479 69.7336 53.2034C68.9736 48.9121 70.0464 44.3528 70.0464 44.3528C70.0464 44.3528 69.225 45.9452 69.091 46.7499C69.091 46.7499 68.9288 42.0731 68.0349 40.2406C68.0349 40.2406 69.0631 46.6326 68.4818 49.8511C67.9007 53.0693 69.0182 65.5854 68.0795 66.4794C67.1408 67.3733 63.6542 67.4179 63.6542 67.4179C63.6542 67.4179 66.2748 67.267 67.2806 66.0769C67.2806 66.0769 60.4247 67.5519 57.7763 64.8532C57.9272 63.6967 57.3238 57.1592 56.7873 54.8293C56.2508 52.4993 55.8821 49.2641 55.8654 47.4371C55.8485 45.6101 53.3733 41.4026 53.3733 41.4026C53.3733 41.4026 55.3848 47.7499 55.7871 54.4772C56.1893 61.2045 57.2173 66.9708 53.9544 67.5519C53.0986 67.7043 52.2497 67.9026 51.4133 68.0795C51.2306 68.1139 47.6213 68.7708 46.8861 67.0879C46.8861 67.0879 47.037 67.6859 47.2706 68.1222C47.2706 68.1222 45.573 68.256 44.9361 66.4454C44.2991 64.6352 44.6845 62.4895 44.6845 62.4895C44.6845 62.4895 43.9127 64.897 44.3063 66.8212C44.2361 66.6363 44.1857 66.4352 44.1649 66.2109C43.8967 63.3278 45.5728 57.3337 44.098 52.9552C44.098 52.9552 44.2097 54.2313 44.0086 54.723C44.0086 54.723 40.902 44.9114 37.3259 39.7485C37.3259 39.7485 39.45 43.5475 41.201 48.5018C40.4498 47.1015 39.3348 45.3855 37.6833 43.3245C37.6833 43.3245 41.2214 48.5651 42.3924 52.3454C43.0971 55.0185 43.5539 57.8155 43.4583 60.4115C43.4098 60.4886 41.3437 63.7257 35.2488 64.3882C35.2488 64.3882 38.1516 64.9268 40.681 64.5081C39.0289 65.1706 36.9795 65.6099 35.7192 65.8398C35.5261 65.8751 35.3317 65.8942 35.1377 65.8991C29.6432 65.6359 27.3799 52.3092 27.3799 52.3092C27.3255 54.0399 27.6421 56.2149 28.038 58.1896C27.5488 56.9308 27.0896 55.4747 26.6871 53.7844C25.1673 48.9569 26.62 49.7389 26.2625 47.5042C25.9049 45.2691 23.8936 43.0118 24.0053 39.9276C24.117 36.8433 26.4639 31.6135 28.8105 30.0714C31.1572 28.5293 37.527 32.7534 41.4158 29.602C41.4158 29.602 35.7835 29.8703 32.4313 28.1939C29.0788 26.5178 24.0501 31.2111 22.3737 40.1958C22.1055 45.1576 26.1285 54.7457 23.9159 59.1038C21.7032 63.462 20.6305 66.6805 23.0442 70.9046C25.458 75.1287 25.324 79.3529 37.1919 77.6765C47.2106 76.4641 49.8199 77.8025 50.4529 73.0211C50.5532 72.2649 50.5242 71.4933 50.3367 70.7537C50.2825 70.54 50.22 70.3432 50.1526 70.1629C52.1427 70.2023 55.708 70.0432 56.2625 68.446C56.8596 70.1001 60.4355 70.8598 66.6937 69.6082C68.6606 69.5636 69.2417 67.4627 69.2417 67.4627C69.2417 67.4627 75.0079 68.9825 76.4829 66.8368C77.9582 64.6913 79.3886 61.2046 79.746 56.9135C80.1035 52.6221 82.6515 46.4089 79.4778 38.3183ZM27.3355 63.026C23.6479 65.6409 24.0837 71.1724 24.0837 71.1724C22.3069 68.9598 21.4686 64.2999 23.7821 61.2156C26.0954 58.1313 25.3576 54.4772 25.3576 54.4772L25.6775 55.1748C26.4156 56.7845 26.4186 58.623 25.7434 60.2602V60.2604C26.3803 59.8581 27.3357 60.0257 27.3357 60.0257C24.6704 60.7967 24.3017 64.8365 24.3017 64.8365C25.4916 63.3947 27.3355 63.026 27.3355 63.026Z" fill="white"/>
<path d="M19.2038 29.8556L17.1368 34.3334L14.8235 32.9229L15.1169 32.2873L13.9381 32.2059L11.9885 36.4296L12.8153 37.2737L13.1086 36.6381L15.6828 37.4835L13.6159 41.9614L11.3026 40.5509L11.6089 39.8871L5.39692 33.5584L5.12304 34.1518L2.54886 33.3061L5.4439 27.0344L7.7507 28.4589L7.48332 29.0381L16.323 29.6741L16.6294 29.0101L19.2038 29.8556ZM11.0703 31.9961L7.37248 31.7287L9.96831 34.3832L11.0703 31.9961Z" fill="white"/>
<path d="M18.0639 11.4195L20.8056 14.0675L18.7121 15.7874L18.1301 15.2254L16.7142 16.6913L22.679 22.4519L23.2411 21.87L25.3933 23.5158L21.9672 27.0634L20.2473 24.9698L20.8093 24.3878L14.8445 18.6272L13.4286 20.0931L14.0106 20.6552L12.3645 22.8074L9.62277 20.1594L18.0639 11.4195Z" fill="white"/>
<path d="M39.8832 11.9885L41.2978 14.3016L36.7968 16.3553L35.9767 13.7711L36.7126 13.4353L35.5502 10.8876L30.7094 13.0963L31.8718 15.6441L32.6079 15.3083L34.0083 17.6277L29.5213 19.6749L28.6871 17.097L29.4232 16.7612L25.9811 9.21706L25.2452 9.55285L23.8449 7.23327L28.3318 5.18605L29.166 7.76391L28.4301 8.0997L29.5925 10.6475L34.4332 8.43874L33.2709 5.89097L32.5348 6.22676L31.1201 3.91368L35.6212 1.85995L36.4413 4.4441L35.7054 4.77989L39.1475 12.3241L39.8832 11.9885Z" fill="white"/>
<path d="M53.7727 9.46646L54.0271 13.2697L43.4868 13.9744L43.6176 11.268L44.4247 11.2141L43.8715 2.94007L43.0642 2.99398L42.5743 0.329081L47.4951 0L47.3643 2.70625L46.557 2.76016L47.1102 11.0341L51.1618 10.7633L51.1078 9.95597L53.7727 9.46646Z" fill="white"/>
<path d="M66.3345 5.63811L66.5415 4.85589L62.6159 3.81734L61.8997 6.52467L66.2014 7.6626L65.1973 10.1809L61.2113 9.12657L60.4951 11.8337L64.4207 12.8722L64.6276 12.0902L67.3092 12.4776L66.3343 16.1626L56.1218 13.4607L57.111 10.9382L57.893 11.1452L60.0138 3.12865L59.2318 2.92168L59.6194 0.240112L69.8319 2.94203L68.857 6.62686L66.3345 5.63811Z" fill="white"/>
<path d="M86.348 12.8662L84.1512 15.9812L82.1308 14.1758L82.5971 13.5146L80.9316 12.3401L76.1526 19.1167L76.8138 19.5831L75.5169 21.962L71.4866 19.1198L73.292 17.0994L73.9532 17.5655L78.7322 10.7888L77.0666 9.61433L76.6003 10.2755L74.2214 8.97847L76.4182 5.86346L86.348 12.8662Z" fill="white"/>
<path d="M84.8461 27.9647L82.9403 29.8906L79.856 26.0421L82.1509 24.6018L82.6569 25.2331L89.1276 20.0473L88.6219 19.4162L90.5275 17.4902L93.6118 21.3387L91.3167 22.7791L90.8107 22.148L84.3397 27.3336L84.8461 27.9647Z" fill="white"/>
<path d="M96.8991 34.6742L97.6389 34.3467L95.8684 30.3494L94.8422 29.9532L88.6828 32.6816L88.2863 33.7078L90.0569 37.705L90.7967 37.3774L92.1714 39.7124L88.6864 41.256L85.3723 33.7738L86.5689 30.6744L94.7623 27.045L97.876 28.2351L101.19 35.7175L97.7052 37.2612L96.8991 34.6742Z" fill="white"/>
<path d="M11.0071 67.0431L8.48225 67.7461L8.19193 65.9058L8.72798 65.7567L7.97889 63.0669L6.12392 63.5834L6.94445 66.5307L5.10139 66.8108L4.34104 64.0799L2.48607 64.5965L2.63524 65.1323L0.909732 65.8348L0 62.5681L1.84025 62.2777L1.98942 62.8136L7.48224 61.2842L7.33307 60.7484L9.05836 60.0458L11.0071 67.0431Z" fill="white"/>
<path d="M6.18496 74.5336L4.59585 75.5059L3.1702 72.429L4.93943 71.8451L5.17325 72.3498L10.3465 69.9527L10.1127 69.448L11.702 68.4759L13.1277 71.5526L11.3587 72.1365L11.1248 71.6318L5.95136 74.0287L6.18496 74.5336Z" fill="white"/>
<path d="M18.4077 79.7826L16.2514 81.2722L15.3756 79.6276L15.8333 79.3115L15.037 78.1585L10.3457 81.399L10.6618 81.8567L9.26056 83.0845L7.33328 80.2942L8.9776 79.4185L9.29369 79.8762L13.985 76.6358L13.1885 75.4827L12.7308 75.7988L11.5031 74.3976L13.6594 72.9081L18.4077 79.7826Z" fill="white"/>
<path d="M20.5121 92.148L19.4315 93.6672L16.9173 91.3755L19.215 84.5829L16.037 88.0694L16.4482 88.4441L15.3596 89.956L12.8534 87.6714L14.2583 86.4478L14.6694 86.8225L18.5103 82.6084L18.0992 82.2338L19.1878 80.722L21.6942 83.0063L19.4043 89.8063L22.582 86.3198L22.1709 85.9451L23.2515 84.4259L25.7657 86.7175L24.353 87.9341L23.9419 87.5593L20.1009 91.7733L20.5121 92.148Z" fill="white"/>
<path d="M30.3232 92.1794L30.6008 91.6973L28.1818 90.3032L27.2203 91.9716L29.8712 93.4992L28.7525 94.9904L26.2963 93.575L25.3348 95.2433L27.754 96.6374L28.0318 96.1554L29.7421 96.8941L28.4336 99.165L22.1404 95.5382L23.2497 94.0415L23.7317 94.3191L26.5786 89.379L26.0967 89.1012L26.8354 87.3909L33.1288 91.0175L31.8203 93.2883L30.3232 92.1794Z" fill="white"/>
<path d="M38.7864 95.5795L38.9614 95.0515L36.1077 94.1063L35.4318 94.446L35.1626 95.2583L35.5021 95.9342L38.5691 96.9498L39.6013 99.0046L38.8514 101.269L36.8 102.291L31.4687 100.525L32.2927 98.0375L33.9823 98.8225L33.8074 99.3503L36.6608 100.296L37.3367 99.9561L37.6058 99.1438L37.2662 98.4679L34.1893 97.4486L33.1637 95.4074L33.9171 93.1329L35.9583 92.1073L41.2998 93.8763L40.4758 96.3644L38.7864 95.5795Z" fill="white"/>
<path d="M47.7623 97.2035L47.8272 96.651L44.8419 96.2999L44.2483 96.7686L44.1482 97.6186L44.617 98.2122L47.8255 98.5896L49.2505 100.394L48.9717 102.764L47.168 104.178L41.5903 103.522L41.8964 100.919L43.7094 101.348L43.6445 101.9L46.63 102.251L47.2236 101.783L47.3237 100.933L46.8549 100.339L43.6358 99.9604L42.2203 98.1674L42.5003 95.7876L44.2931 94.3719L49.8814 95.0292L49.5753 97.6322L47.7623 97.2035Z" fill="white"/>
<path d="M63.0182 95.8335L62.8969 95.2907L59.9631 95.9461L59.5578 96.5848L60.568 101.105L61.2067 101.511L64.1403 100.855L64.0188 100.312L65.7783 99.6998L66.3501 102.258L60.8586 103.485L58.9298 102.261L57.586 96.2472L58.8079 94.3081L64.2994 93.0811L64.8712 95.6391L63.0182 95.8335Z" fill="white"/>
<path d="M71.3783 92.6994L71.1523 92.1911L68.6013 93.3258L69.3837 95.085L72.1794 93.8417L72.7261 95.6239L70.1361 96.7761L70.9185 98.5354L73.4695 97.4007L73.2435 96.8924L74.8475 95.9448L75.9127 98.3395L69.2759 101.291L68.7195 99.5136L69.2276 99.2875L66.9104 94.0779L66.4021 94.3039L65.4545 92.6999L72.0913 89.7481L73.1565 92.1426L71.3783 92.6994Z" fill="white"/>
<path d="M84.5995 90.1915L85.876 91.55L83.1343 93.5639L76.9268 89.9739L79.7194 93.7761L80.1678 93.4468L81.4358 94.8116L78.7027 96.8192L77.7796 95.2009L78.2279 94.8716L74.8525 90.2762L74.4043 90.6055L73.1363 89.2406L75.8694 87.233L82.0855 90.8168L79.2927 87.0146L78.8445 87.3441L77.5678 85.9856L80.3096 83.9717L81.2243 85.5963L80.7759 85.9254L84.1514 90.5208L84.5995 90.1915Z" fill="white"/>
<path d="M86.6247 76.7899L88.6122 78.4986L87.2435 79.7625L86.8217 79.3999L85.9081 80.4627L90.2316 84.1795L90.5942 83.7578L92.137 84.802L89.9263 87.3733L88.6626 86.0048L89.0253 85.5829L84.7015 81.866L83.7881 82.9286L84.2099 83.2912L83.1657 84.8342L81.1782 83.1256L86.6247 76.7899Z" fill="white"/>
<path d="M91.969 72.1956L91.4812 71.928L90.1385 74.376L91.8268 75.302L93.2979 72.6195L94.8125 73.7066L93.4492 76.192L95.1375 77.1179L96.4802 74.67L95.9924 74.4024L96.695 72.6769L98.9929 73.9374L95.4997 80.3057L93.9801 79.228L94.2474 78.7404L89.2485 75.9984L88.9809 76.486L87.2554 75.7834L90.7486 69.4151L93.0465 70.6756L91.969 72.1956Z" fill="white"/>
<path d="M102.638 63.1931L101.57 66.7036L99.8615 65.9604L100.023 65.4282L97.8669 65.9017L97.3906 67.4674L99.2328 68.0277L99.3947 67.4954L101.228 67.8292L100.241 71.0735L98.5324 70.3302L98.6941 69.7979L93.2392 68.1388L93.0773 68.671L91.2444 68.3371L93.0996 62.2372L95.118 61.1515L97.4105 61.8488L98.4828 63.8744L100.643 63.391L100.804 62.8586L102.638 63.1931ZM96.4884 64.0734L96.1355 63.3959L95.3167 63.147L94.6463 63.5133L93.7779 66.3685L95.6201 66.9288L96.4884 64.0734Z" fill="white"/>
<path d="M4.68746 45.6393L5.83534 47.9651L8.40216 48.338L6.54481 50.1485L6.98322 52.7048L4.68746 51.498L2.39169 52.7048L2.8301 50.1485L0.972748 48.338L3.53957 47.9651L4.68746 45.6393Z" fill="white"/>
<path d="M98.0353 45.6393L99.1832 47.9651L101.75 48.338L99.8927 50.1485L100.331 52.7048L98.0353 51.498L95.7396 52.7048L96.178 50.1485L94.3206 48.338L96.8874 47.9651L98.0353 45.6393Z" fill="white"/>
</svg>
